<svg width="275" height="72" viewBox="0 0 275 72" fill="none" xmlns="http://www.w3.org/2000/svg">
<path d="M18 29L23 31L20 32L15 33.5L9.5 35.5L6.5 37L0 40.5L1 41.5L3.5 44L6 44.5L6.5 47.5L7 49L10.5 52H13L14.5 50L15.5 51L18.5 52.5L23 56L22 59H23.5L24.5 60.5H28.5L37.5 60V61L43.5 65L47.5 65.5L49.5 67.5L53 67V69L56 70.5L60.5 71L62.5 70L65 71.5L68 70.5L71.5 71.5H74.5H81L87 70L93 69.5L100.5 69L107.5 68.5L114 67H122L132 66.5L138 66H144L150 65.5L159 65L166.5 64L168 63.5L172 63H180H187.5H194.5L196 62H203.5L207 61L210 62.5H215H219L228.5 62H237L238 60.5L240 62L250 63L251 61L255 61.5V58.5L260.5 59.5L266 60.5L270 59.5L266 55.5L268 54L269 52.5L275 52L271 48.5L268 46.5L260.5 42L256 39L246.5 37.5L239 36.5L248 35L250 31L253 26L255 21L256 17.5L254 14L247 10L237.5 7L230 5.5L223.5 5L219 4.5L207 3L200.5 2L193.5 1.5L187.5 1L174 0L138 0.5L112.5 1L99.5 2L85 3L67.5 3.5L54 4.5L44 5H36.5L31 6.5H24.5L18 7.5L9.5 10.5L5 14L0 16.5L5 22L9 26L13.5 28L18 29Z" fill="#FF0404"/>
</svg>
