<?xml version="1.0" encoding="utf-8"?>
<!-- Generator: Adobe Illustrator 22.0.0, SVG Export Plug-In . SVG Version: 6.00 Build 0)  -->
<!DOCTYPE svg PUBLIC "-//W3C//DTD SVG 1.1//EN" "http://www.w3.org/Graphics/SVG/1.1/DTD/svg11.dtd">
<svg version="1.1" id="Layer_1" xmlns="http://www.w3.org/2000/svg" xmlns:xlink="http://www.w3.org/1999/xlink" x="0px" y="0px"
	 viewBox="0 0 200 200" style="enable-background:new 0 0 200 200;" xml:space="preserve">
<style type="text/css">
	.st0{fill:#FFFFFF;}
	.st1{fill:#F16422;}
</style>
<rect x="0" class="st0" width="200" height="200"/>
<g>
	<rect x="3" y="3" class="st1" width="194" height="194"/>
	<g>
		<g>
			<g>
				<path class="st0" d="M20.5,82.2l4.4-4.4l1.8,1.8c-0.5,2.7,1.1,5.1,2.5,7c0.6,0.8,1.2,1.7,0.4,2.5c-0.9,0.9-1.8,0.2-1.9,0.1
					L20.5,82.2z"/>
				<path class="st0" d="M46.4,70.4c0.1,0.1,0.8,1-0.1,1.9c-0.9,0.9-1.8,0.2-2.5-0.4c-1.9-1.3-4.3-2.9-7-2.5L35,67.7l4.4-4.4
					L46.4,70.4z"/>
				<path class="st0" d="M26.2,76.4l7.4-7.4l19.3,19.3c1.1,1.1,1.3,1.3,2.7,0.6c0.5-0.3,1.1-0.3,1.5,0.2C58,90,57,91,56.9,91.2
					l-8.6,8.6c-0.1,0.1-1.2,1.1-2.1,0.2c-0.4-0.4-0.4-1-0.2-1.5c0.7-1.4,0.5-1.5-0.6-2.7L26.2,76.4z"/>
			</g>
			<g>
				<path class="st0" d="M65.4,61.3L62.8,64L61,62.2l2.7-2.7l-6.9-6.9c-1.1-1.1-1.3-1.3-2.7-0.6c-0.5,0.3-1.1,0.3-1.5-0.2
					c-0.9-0.9,0.1-1.9,0.2-2.1l8.6-8.6c0.1-0.1,1.2-1.1,2.1-0.2c0.4,0.4,0.4,1,0.2,1.5c-0.7,1.4-0.5,1.5,0.6,2.7L80.2,61
					c1.1,1.1,1.3,1.3,2.7,0.6c0.5-0.3,1.1-0.3,1.5,0.2c0.9,0.9-0.1,1.9-0.2,2.1l-8.6,8.6c-0.1,0.1-1.2,1.1-2.1,0.2
					c-0.4-0.4-0.4-1-0.2-1.5c0.7-1.4,0.5-1.5-0.6-2.7L65.4,61.3z"/>
				<path class="st0" d="M68.6,72.5c1.1,1.1,1.3,1.3,2.7,0.6c0.5-0.3,1.1-0.3,1.5,0.2c0.9,0.9-0.1,1.9-0.2,2.1L64,83.9
					c-0.1,0.1-1.2,1.1-2,0.2c-0.4-0.4-0.4-1-0.2-1.5c0.7-1.4,0.5-1.5-0.6-2.7L45.4,64.1c-1.1-1.1-1.3-1.3-2.7-0.6
					c-0.5,0.3-1.1,0.3-1.5-0.2c-0.9-0.9,0.1-1.9,0.2-2.1l8.6-8.6c0.1-0.1,1.2-1.1,2.1-0.2c0.4,0.4,0.4,1,0.1,1.5
					c-0.7,1.4-0.5,1.6,0.6,2.7L68.6,72.5z"/>
			</g>
			<g>
				<path class="st0" d="M83.7,39.2c0.9-1.6,0.3-3.4-0.5-4.8c-0.4-0.7-0.7-1.3,0-2c0.9-0.9,1.9,0.3,2.1,0.6l6.5,6.5
					c0.2,0.2,1.5,1.2,0.5,2.1c-0.6,0.6-1.3,0.3-2,0c-1.4-0.9-3.2-1.5-4.8-0.5L83.7,39.2z"/>
				<path class="st0" d="M94.5,50c2.1-2.7,2.4-6.3,0.8-9.5c-0.2-0.7-0.5-1.3,0-1.9c1-1,1.8,0,1.9,0.2l6.1,6.1l-7,7L94.5,50z"/>
				<path class="st0" d="M73.6,29.1l6.8-6.8l6.1,6.2c0.2,0.2,0.7,0.8-0.2,1.7c-0.5,0.5-1,0.4-1.6,0.1c-3.2-1.7-6.3-1.6-9.4,0.6
					L73.6,29.1z"/>
				<path class="st0" d="M64.2,38.4l8-8L94.8,53l-8,8c-0.1,0.1-1.2,1.1-2.1,0.2c-0.4-0.4-0.4-1-0.2-1.5c0.7-1.4,0.5-1.5-0.6-2.7
					L68.2,41.2c-1.1-1.1-1.3-1.3-2.7-0.6c-0.5,0.3-1.1,0.3-1.5-0.1C63.2,39.6,64.1,38.5,64.2,38.4"/>
			</g>
		</g>
		<g>
			<g>
				<path class="st0" d="M121.9,153.2c1-1.7,0.4-3.6-0.6-5.1c-0.4-0.7-0.7-1.4,0-2.1c1-1,2,0.3,2.3,0.6l7,7c0.3,0.3,1.6,1.3,0.6,2.3
					c-0.7,0.7-1.4,0.4-2.1,0c-1.5-0.9-3.4-1.6-5.1-0.6L121.9,153.2z"/>
				<path class="st0" d="M133.4,164.7c2.3-2.9,2.5-6.7,0.8-10.1c-0.3-0.7-0.6-1.4,0-2c1-1,1.9,0,2,0.2l6.5,6.4l-7.4,7.4L133.4,164.7
					z"/>
				<path class="st0" d="M111.2,142.4l7.2-7.2l6.5,6.5c0.2,0.2,0.7,0.8-0.2,1.8c-0.5,0.6-1,0.4-1.7,0.1c-3.4-1.8-6.7-1.7-10,0.7
					L111.2,142.4z"/>
				<path class="st0" d="M101.2,152.4l8.5-8.5l24.1,24.1l-8.5,8.5c-0.1,0.1-1.3,1.1-2.2,0.2c-0.4-0.5-0.4-1-0.2-1.6
					c0.8-1.5,0.6-1.6-0.6-2.8l-16.9-16.9c-1.2-1.2-1.4-1.4-2.8-0.6c-0.6,0.3-1.1,0.3-1.6-0.2C100.1,153.6,101.1,152.5,101.2,152.4"
					/>
			</g>
			<g>
				<path class="st0" d="M125,135.8c-1.2-1.2-1.3-1.4-2.8-0.6c-0.5,0.3-1.1,0.3-1.6-0.2c-0.9-0.9,0.1-2.1,0.2-2.2l8.5-8.5l20.5,20.5
					c1.2,1.2,1.3,1.4,2.8,0.6c0.6-0.3,1.1-0.3,1.6,0.2c0.9,0.9-0.1,2.1-0.2,2.2l-9.1,9.1c-0.1,0.1-1,0.9-1.9-0.1
					c-0.5-0.5-0.5-1-0.2-1.5c0.8-1.5,0.4-1.5-0.8-2.6L125,135.8z"/>
				<path class="st0" d="M130.8,122.8c3.1-3.1,5.2-4.5,7.6-5.2c3.8-1,6.9,0.2,9.6,2.9c2.7,2.7,3.9,5.8,2.9,9.6
					c-0.6,2.4-2.1,4.5-5.2,7.6l-1.9-1.9c1.6-2.3,0.3-3.7-1.3-5.3l-4.9-4.9c-1.5-1.4-3.1-2.5-5-1L130.8,122.8z"/>
			</g>
			<g>
				<path class="st0" d="M173.9,125.1c1-2.1,0.1-3.2-0.7-4l-16.7-16.7c-0.8-0.8-1.9-1.6-4-0.7l-1.9-1.9c7.4-6.2,16.1-3.9,22.5,2.5
					s8.7,15.1,2.5,22.5L173.9,125.1z"/>
				<path class="st0" d="M151.2,105.2c-1,2.1-0.1,3.2,0.7,4l16.7,16.7c0.8,0.8,1.9,1.6,4,0.7l1.9,1.9c-7.4,6.2-16.1,3.9-22.5-2.5
					c-6.4-6.4-8.7-15.1-2.5-22.5L151.2,105.2z"/>
			</g>
			<g>
				<path class="st0" d="M89.2,164.4c5.4-5.5,13.8-6.3,22.5,1.6c7.9,7.2,7,17.1,1.6,22.5l-1.9-1.9c1.7-2.2,0-4.2-1.3-5.4l-13.7-13.7
					c-1.2-1.2-3.2-3-5.4-1.3L89.2,164.4z"/>
				<path class="st0" d="M101.3,196.3c-0.1,0.2-0.2,0.5-0.3,0.7h3.8l7.1-7.1l-24.1-24.1l-8.2,8.2c-0.6,0.6-1.4,1.6-0.5,2.4
					c0.8,0.8,1.5,0.3,2.4-0.1c0.8-0.4,1.6,0.5,2.1,1l16.9,16.9C100.8,194.7,101.8,195.5,101.3,196.3"/>
			</g>
			<g>
				<path class="st0" d="M166.2,91.1l-1.9-1.9l-4.6,4.6l7.5,7.5c0.1,0.1,1,0.8,2-0.1c0.9-0.9,0.2-1.9-0.4-2.7
					C167.4,96.6,165.7,94,166.2,91.1"/>
				<path class="st0" d="M184.4,82.9c0.8,0.6,1.8,1.3,2.7,0.4c1-1,0.3-1.9,0.1-2l-7.5-7.5l-4.6,4.6l1.9,1.9
					C179.9,79.8,182.4,81.5,184.4,82.9"/>
				<path class="st0" d="M197,101c-1.5,0.8-1.6,0.5-2.8-0.6l-20.5-20.5l-7.9,7.9l20.5,20.5c1.2,1.2,1.4,1.3,0.6,2.8
					c-0.3,0.6-0.3,1.1,0.2,1.6c0.9,0.9,2.1-0.1,2.2-0.2l7.7-7.7V101z"/>
			</g>
		</g>
		<g>
			<g>
				<path class="st0" d="M101.9,136c1.7-3.6,0.2-5.6-1.2-7L71,99.3c-1.4-1.4-3.4-2.9-7-1.2l-3.3-3.3c13.2-11,28.6-6.9,40.1,4.5
					c11.4,11.4,15.5,26.8,4.5,40.1L101.9,136z"/>
				<path class="st0" d="M61.4,100.6c-1.7,3.7-0.2,5.6,1.2,7l29.7,29.7c1.4,1.4,3.4,2.9,7,1.2l3.3,3.3c-13.2,11-28.7,6.9-40.1-4.5
					S47,110.4,58,97.2L61.4,100.6z"/>
			</g>
			<g>
				<path class="st0" d="M165,74.2c-0.8-0.8-1.8-0.8-2.8-0.3c-2.6,1.4-2.9,1-5-1.2l-30-30c-2.1-2.1-2.5-2.4-1.2-5
					c0.5-1,0.5-2-0.3-2.8c-1.7-1.7-3.7,0.1-3.9,0.3l-15.1,15.1L119,73.1l-0.1,0.1L95.3,61.8L80.8,76.3c-0.7,0.7-2.4,2.4-0.6,4.2
					c1.4,1.4,3,0,3.8-0.7c1-0.9,1.9-0.4,3.3-0.1c1.2,0.3,2.3,0.9,3.5,1.4l47.4,23.5l1.6-1.7l-23.2-42.8l26.6,26.6
					c2.1,2.1,2.5,2.4,1.2,5c-0.5,1-0.5,2,0.3,2.8c1.6,1.7,3.7-0.1,3.9-0.3L164.8,78C164.9,77.9,166.7,75.9,165,74.2"/>
				<path class="st0" d="M120.3,104.4l-9.8-9.8l-12.6-6.3l-0.1,0.1l19.3,19.3c6.2,8.1,0.4,9.5,2.8,12c1.8,1.8,4-0.7,4.6-1.3l6.5-6.5
					c0.6-0.6,3.1-2.9,1.3-4.6C129.8,104.8,128.4,110.7,120.3,104.4"/>
			</g>
			<g>
				<path class="st0" d="M81.6,157.7c-0.8-0.8-1.8-0.8-2.8-0.3c-2.6,1.4-2.9,1-5-1.2l-30-30c-2.1-2.1-2.5-2.4-1.1-5
					c0.5-1,0.5-2-0.3-2.8c-1.7-1.6-3.7,0.1-3.9,0.3l-16.2,16.2c-0.2,0.2-2,2.2-0.3,3.9c0.8,0.8,1.8,0.8,2.8,0.3c2.6-1.4,2.9-1,5,1.2
					l13,13l-5,5l3.3,3.3l5-5l13.7,13.7c2.1,2.1,2.5,2.4,1.1,5c-0.5,1-0.5,2,0.3,2.8c1.7,1.7,3.7-0.1,3.9-0.3l16.2-16.2
					C81.5,161.4,83.2,159.4,81.6,157.7"/>
				<path class="st0" d="M60,179.3c-0.8-0.8-1.8-0.8-2.8-0.3c-2.6,1.4-2.9,1-5-1.2l-30-30c-2.1-2.1-2.5-2.4-1.2-5.1
					c0.5-1,0.5-2-0.3-2.8c-1.7-1.7-3.6,0.1-3.9,0.3L3,154.1v6.6c0,0,0,0,0.1,0c2.6-1.4,2.9-1,5,1.2l30,30c2.1,2.1,2.5,2.4,1.1,5v0.1
					h6.6l13.8-13.8C59.9,183,61.6,181,60,179.3"/>
			</g>
			<g>
				<path class="st0" d="M163.9,17.6c-1.2,1.2-0.6,2.5,0.1,3.7c1.7,2.7,2.8,6,1,9l3.6,3.6c3-1.8,6.3-0.6,9,1
					c1.3,0.7,2.5,1.3,3.7,0.1c1.8-1.8-0.6-3.6-1-4l-12.4-12.4C167.4,18.2,165.6,15.9,163.9,17.6"/>
				<path class="st0" d="M128.2,28.9c-0.2,0.2-2,2.2-0.3,3.9c0.8,0.8,1.8,0.8,2.8,0.3c2.6-1.4,2.9-1,5,1.1l30,30
					c2.1,2.1,2.5,2.4,1.2,5c-0.5,1-0.5,2,0.3,2.8c1.7,1.7,3.7-0.1,3.9-0.3l15.1-15.1l-42.8-42.9L128.2,28.9z"/>
				<path class="st0" d="M197,36.1l-6.6-6.6c-0.2-0.2-1.8-2.1-3.6-0.3c-1,1-0.5,2.3,0,3.6c3,6.1,2.7,12.8-1.4,18l3.3,3.3l8.3-8.3
					V36.1z"/>
				<path class="st0" d="M170.2,10.1L163.1,3h-9l-8.3,8.3l3.3,3.3c5.8-4.2,11.6-4.3,17.7-1.2c1.1,0.6,2,0.9,3-0.1
					C171.5,11.6,170.5,10.4,170.2,10.1"/>
			</g>
		</g>
		<g>
			<path class="st0" d="M180.2,185.9c0-3.3,2.8-6,6.2-6s6.2,2.7,6.2,6c0,3.4-2.8,6.1-6.2,6.1S180.2,189.3,180.2,185.9z M181.4,185.9
				c0,2.7,2.2,4.9,5,4.9s5-2.1,5-4.9c0-2.7-2.2-4.8-5-4.8C183.6,181.1,181.4,183.3,181.4,185.9z M189.5,189.3h-1.2l-2-3.1h-1.2v3.1
				h-1v-6.7h3c0.6,0,1.2,0,1.7,0.3s0.8,0.9,0.8,1.5c0,1.3-1,1.8-2.2,1.9L189.5,189.3z M186.3,185.4c1,0,2.3,0.2,2.3-1
				c0-0.9-0.8-1-1.6-1h-1.8v2H186.3L186.3,185.4z"/>
		</g>
	</g>
</g>
</svg>
